<?xml version="1.0" encoding="UTF-8"?>
<svg xmlns="http://www.w3.org/2000/svg" xmlns:xlink="http://www.w3.org/1999/xlink" viewBox="0 0 16 16" width="16px" height="16px">
<g id="surface62705461">
<path style=" stroke:none;fill-rule:nonzero;fill:rgb(0%,58.823532%,100%);fill-opacity:1;" d="M 5.394531 1.75 C 3.386719 1.75 1.75 3.386719 1.75 5.398438 L 1.75 10.605469 C 1.75 12.613281 3.386719 14.25 5.398438 14.25 L 10.605469 14.25 C 12.613281 14.25 14.25 12.613281 14.25 10.601562 L 14.25 5.394531 C 14.25 3.386719 12.613281 1.75 10.601562 1.75 Z M 11.75 3.75 C 12.027344 3.75 12.25 3.972656 12.25 4.25 C 12.25 4.527344 12.027344 4.75 11.75 4.75 C 11.472656 4.75 11.25 4.527344 11.25 4.25 C 11.25 3.972656 11.472656 3.75 11.75 3.75 Z M 8 4.75 C 9.792969 4.75 11.25 6.207031 11.25 8 C 11.25 9.792969 9.792969 11.25 8 11.25 C 6.207031 11.25 4.75 9.792969 4.75 8 C 4.75 6.207031 6.207031 4.75 8 4.75 Z M 8 5.75 C 6.757812 5.75 5.75 6.757812 5.75 8 C 5.75 9.242188 6.757812 10.25 8 10.25 C 9.242188 10.25 10.25 9.242188 10.25 8 C 10.25 6.757812 9.242188 5.75 8 5.75 Z M 8 5.75 "/>
</g>
</svg>
