<svg id="SvgjsSvg1001" width="288" height="288" xmlns="http://www.w3.org/2000/svg" version="1.1" xmlns:xlink="http://www.w3.org/1999/xlink" xmlns:svgjs="http://svgjs.com/svgjs"><defs id="SvgjsDefs1002"></defs><g id="SvgjsG1008" transform="matrix(1,0,0,1,0,0)"><svg xmlns="http://www.w3.org/2000/svg" width="288" height="288" fill="none" viewBox="0 0 16 10"><path fill="#0e0f0f" d="M10.1953 1.47108C9.93491 1.21073 9.93491 0.788619 10.1953 0.52827C10.4556 0.26792 10.8777 0.26792 11.1381 0.52827L15.1381 4.52827C15.3984 4.78862 15.3984 5.21073 15.1381 5.47108L11.1381 9.47108C10.8777 9.73143 10.4556 9.73143 10.1953 9.47108C9.93491 9.21073 9.93491 8.78862 10.1953 8.52827L13.0572 5.66633H1.34052C0.968273 5.66633 0.666504 5.36785 0.666504 4.99966C0.666504 4.63147 0.968273 4.333 1.34052 4.333H13.0572L10.1953 1.47108Z" class="color0096FF svgShape"></path></svg></g></svg>